<svg width="12" height="14" viewBox="0 0 12 14" fill="none" xmlns="http://www.w3.org/2000/svg">
<path d="M0.666687 1.83331C0.666687 1.00489 1.33826 0.333313 2.16669 0.333313H5.08745C5.48528 0.333313 5.86681 0.491348 6.14811 0.772653L9.22735 3.85188C9.50865 4.13319 9.66669 4.51472 9.66669 4.91255V10.5C9.66669 11.3284 8.99511 12 8.16669 12H2.16669C1.33826 12 0.666687 11.3284 0.666687 10.5V1.83331ZM2.16669 1.33331C1.89054 1.33331 1.66669 1.55717 1.66669 1.83331V10.5C1.66669 10.7761 1.89054 11 2.16669 11H8.16669C8.44283 11 8.66669 10.7761 8.66669 10.5V4.99833H6.50262C5.6742 4.99833 5.00262 4.32676 5.00262 3.49833V1.33331H2.16669ZM6.00262 2.04138V3.49833C6.00262 3.77447 6.22648 3.99833 6.50262 3.99833H7.95958L6.00262 2.04138Z" fill="#8E9397"/>
<path d="M2.41929 12.6667C2.62521 13.2493 3.18083 13.6667 3.83394 13.6667H8.16727C9.91617 13.6667 11.3339 12.2489 11.3339 10.5V6.57923C11.3339 6.1814 11.1759 5.79987 10.8946 5.51857L10.3339 4.95791V10.5C10.3339 11.6966 9.36389 12.6667 8.16727 12.6667H2.41929Z" fill="#8E9397"/>
</svg>
